<?xml version="1.0" encoding="UTF-8"?>
<svg id="Warstwa_2" data-name="Warstwa 2" xmlns="http://www.w3.org/2000/svg" viewBox="0 0 83.92 63.49">
  <defs>
    <style>
      .cls-1 {
        fill: #1d1d1b;
      }
    </style>
  </defs>
  <g id="Warstwa_3" data-name="Warstwa 3">
    <path class="cls-1" d="M78.56,0H5.36C2.4,0,0,2.4,0,5.36v52.77c0,2.96,2.4,5.36,5.36,5.36h73.2c2.96,0,5.36-2.4,5.36-5.36V5.36c0-2.96-2.4-5.36-5.36-5.36ZM71.8,19.54l-28.22,18.89c-.34.23-.73.34-1.11.34-.41,0-.83-.13-1.17-.38-.16-.05-.31-.12-.45-.22L12.63,19.28c-.91-.61-1.16-1.86-.54-2.77.61-.92,1.85-1.17,2.77-.55l27.54,18.44,27.17-18.19c.92-.61,2.16-.37,2.78.55.61.92.36,2.16-.55,2.78Z"/>
  </g>
</svg>