<?xml version="1.0" encoding="UTF-8"?>
<svg id="Warstwa_2" data-name="Warstwa 2" xmlns="http://www.w3.org/2000/svg" viewBox="0 0 69.46 82.34">
  <defs>
    <style>
      .cls-1 {
        fill: #1d1d1b;
      }

      .cls-2 {
        stroke-dasharray: 6.28 6.28;
      }

      .cls-2, .cls-3 {
        fill: none;
        stroke: #1d1d1b;
        stroke-miterlimit: 10;
        stroke-width: 2px;
      }
    </style>
  </defs>
  <g id="Warstwa_3" data-name="Warstwa 3">
    <g>
      <path class="cls-1" d="M34.75,72.27c-10.07,0-20.69-2.13-31.45-6.36l-.64-.25v-.69c.09-7.27.18-15.82.26-24.38.07-7.28.14-14.57.21-21.1l2,.02c-.07,6.53-.14,13.81-.21,21.09-.08,8.29-.16,16.57-.24,23.69,12.13,4.67,30.62,8.63,48.59,3.46,4.7-1.35,13.29-4.25,13.75-8,.11-.93-.35-1.93-1.38-2.98-.12.12-.21.22-.29.28-10.04,8.7-32.03,7.42-44.44,3.74-3.79-1.13-8.46-3-9.2-5.56-.31-1.08-.14-2.15.48-3.09.74-1.11,2.14-2.07,4.19-2.87-.21-.08-.42-.16-.62-.24-2.15-.88-3.33-1.74-3.7-2.71-.38-.97-.33-1.96.14-2.86,1.01-1.95,3.91-3.49,8.85-4.72,15.04-3.75,38.99-.93,45.81,4.8.58-1.05.82-2.21.35-3.39-1.59-4.03-7.64-6.85-11.31-7.76-11.68-2.9-23.9-2.55-38.45,1.08l-1.26.32.47-29.86,2,.03-.43,27.27c14.33-3.43,26.49-3.67,38.16-.78,3.51.87,10.68,3.86,12.69,8.97.82,2.08.27,4.04-.83,5.7.06.1.11.2.16.3,1.74,3.65,0,7.52-1.53,9.78.05.05.09.09.14.14,1.51,1.52,2.18,3.09,1.99,4.67-.57,4.65-7.88,7.57-15.29,9.84-6.02,1.84-12.35,2.43-18.96,2.44ZM19.66,50.32c-3.04.81-5.07,1.81-5.81,2.93-.3.45-.37.91-.22,1.43.27.94,2.49,2.61,7.85,4.2,11.62,3.45,33.19,4.78,42.56-3.34.02-.02.04-.04.07-.06-1.79-1.28-4.29-2.49-7.29-3.52-11.46,2.68-27.86.92-37.15-1.64ZM60.02,51.04c2.09.88,3.89,1.85,5.3,2.86,1.12-1.72,2.38-4.5,1.5-7.08-1.68,1.72-3.72,2.93-4.66,3.36-.68.31-1.4.59-2.15.85ZM24.3,49.37c8.13,1.66,19.3,2.56,28.26,1.32-7.32-1.87-16.52-2.75-25.48-1.7-.97.11-1.9.24-2.78.38ZM35.05,46.54c8.1,0,15.83,1.32,21.85,3.33,1.62-.4,3.11-.9,4.44-1.51.04-.02,2.56-1.33,4.35-3.27-5.39-4.95-28.96-8.21-44.16-4.43-5.62,1.4-7.15,2.92-7.55,3.71-.21.39-.22.78-.05,1.22,0,.03.27.63,2.59,1.58.9.37,1.96.73,3.15,1.07,2.02-.5,4.42-.92,7.19-1.24,2.74-.32,5.49-.47,8.2-.47Z"/>
      <path class="cls-1" d="M13.51,4.07C13.55,1.79,15.43-.04,17.71,0s4.11,1.92,4.07,4.2c-.04,2.28-1.92,4.11-4.2,4.07s-4.11-1.92-4.07-4.2Z"/>
      <path class="cls-1" d="M8.27,19.75c.02-2.28-1.81-4.15-4.09-4.18C1.89,15.55.02,17.38,0,19.67c-.02,2.28,1.81,4.15,4.09,4.18,2.28.02,4.15-1.81,4.18-4.09Z"/>
    </g>
    <g>
      <path class="cls-3" d="M56.52,21.32s-.76.83-1.87,2.34"/>
      <path class="cls-2" d="M51.26,28.95c-5.21,9.41-10.62,26.35,3.06,44.17"/>
      <path class="cls-3" d="M56.31,75.56c.64.74,1.31,1.48,2.02,2.22"/>
      <path class="cls-1" d="M63.16,82.34c-3.06-1.33-7.22-2.59-10.41-2.74l4.99-2.46,2.26-5.08c.28,3.17,1.71,7.29,3.16,10.28Z"/>
    </g>
    <g>
      <path class="cls-3" d="M24.06,21s.76.83,1.87,2.34"/>
      <path class="cls-2" d="M29.32,28.63c5.21,9.41,10.62,26.35-3.06,44.17"/>
      <path class="cls-3" d="M24.27,75.24c-.64.74-1.31,1.48-2.02,2.22"/>
      <path class="cls-1" d="M17.43,82.02c1.45-3,2.88-7.11,3.16-10.29l2.26,5.08,4.99,2.46c-3.18.15-7.35,1.41-10.4,2.74Z"/>
    </g>
  </g>
</svg>