<?xml version="1.0" encoding="UTF-8"?>
<svg id="Warstwa_2" data-name="Warstwa 2" xmlns="http://www.w3.org/2000/svg" viewBox="0 0 96.68 65.12">
  <defs>
    <style>
      .cls-1 {
        fill: #cdccce;
      }

      .cls-2 {
        fill: #1d1d1b;
      }

      .cls-3 {
        fill: #e30613;
      }
    </style>
  </defs>
  <g id="Warstwa_3" data-name="Warstwa 3">
    <g>
      <polygon class="cls-2" points="53.83 14.56 53.83 43.2 51.94 41.29 45.31 34.61 31.5 14.81 31.33 14.56 53.83 14.56"/>
      <polygon class="cls-2" points="32.16 42.78 53.83 61.1 53.83 61.93 19.44 61.93 19.44 27.63 20.42 28.8 30.91 41.29 32.16 42.78"/>
      <polygon class="cls-1" points="53.83 61.1 58.39 64.95 0 64.95 0 41.29 30.91 41.29 32.16 42.78 53.83 61.1"/>
      <polygon class="cls-1" points="96.68 41.29 96.68 64.95 75.4 64.95 53.83 43.2 51.94 41.29 96.68 41.29"/>
      <g>
        <polygon class="cls-2" points="75.57 65.12 58.59 65.12 58.39 64.95 75.4 64.95 75.57 65.12"/>
        <polygon class="cls-3" points="75.4 64.95 58.39 64.95 58.59 65.12 75.57 65.12 75.4 64.95 75.4 64.95"/>
      </g>
      <path class="cls-2" d="M31.44,16.48l13.04,18.7.05.07.06.06,28.57,28.81h-14.21l-26.09-22.05-11.16-13.29,9.74-12.3M31.49,14.8l-11.08,13.99,11.74,13.98,26.43,22.34h16.98l-30.26-30.51-13.81-19.8h0Z"/>
      <g>
        <polygon class="cls-2" points="10.07 15.68 21.16 .85 30.87 14.78 20.4 28 10.07 15.68"/>
        <path class="cls-2" d="M21.14,1.71l9.1,13.05-9.86,12.45-.19-.23-9.49-11.31L21.14,1.71M21.17,0l-11.74,15.7,10,11.92.98,1.17,11.08-13.99-.17-.25L21.17,0h0Z"/>
      </g>
    </g>
  </g>
</svg>