<?xml version="1.0" encoding="UTF-8"?>
<svg xmlns="http://www.w3.org/2000/svg" version="1.1" viewBox="0 0 42.8 38.9">
  <!-- Generator: Adobe Illustrator 29.6.0, SVG Export Plug-In . SVG Version: 2.1.1 Build 207)  -->
  <defs>
    <style>
      .st0 {
        fill: none;
        stroke: #000;
        stroke-miterlimit: 10;
        stroke-width: 2px;
      }
    </style>
  </defs>
  <g id="Warstwa_1">
    <g>
      <path class="st0" d="M-109.9,3.9l-14.5,25.1c-2.3,3.9.6,8.8,5.1,8.8h29c4.5,0,7.4-4.9,5.1-8.8l-14.5-25.1c-2.3-3.9-7.9-3.9-10.2,0Z"/>
      <path d="M-98.6,31.4c-1.7,1.3-3.9,2-6.1,2s-4.4-.8-6.1-2l3.8-4.9c.8.6,1.8.9,2.9.8.7,0,1.4-.4,1.9-.8l3.7,4.9Z"/>
      <path d="M-106.5,19.8c-1.3.7-2.2,2-2.2,3.5h-6.4c0-.1,0-.2,0-.3,0-4,2.3-7.5,5.6-9.2l3,6Z"/>
      <path d="M-94.4,23c0,.1,0,.2,0,.3h-6.4c0-.1,0-.3,0-.5-.2-1.4-1-2.5-2.2-3.1l3-6c3.3,1.7,5.6,5.2,5.6,9.2Z"/>
      <circle cx="-104.8" cy="23.3" r="2.9"/>
    </g>
  </g>
  <g id="asdfghjk">
    <g>
      <path class="st0" d="M16.3,3.9L1.8,29.1c-2.3,3.9.6,8.8,5.1,8.8h29c4.5,0,7.4-4.9,5.1-8.8L26.5,3.9c-2.3-3.9-7.9-3.9-10.2,0Z"/>
      <path d="M27.5,31.4c-1.7,1.3-3.9,2-6.1,2s-4.4-.8-6.1-2l3.8-4.9c.8.6,1.8.9,2.9.8.7,0,1.4-.4,1.9-.8l3.7,4.9Z"/>
      <path d="M19.6,19.8c-1.3.7-2.2,2-2.2,3.5h-6.4c0-.1,0-.2,0-.3,0-4,2.3-7.5,5.6-9.2l3,6Z"/>
      <path d="M31.8,23c0,.1,0,.2,0,.3h-6.4c0-.1,0-.3,0-.5-.2-1.4-1-2.5-2.2-3.1l3-6c3.3,1.7,5.6,5.2,5.6,9.2Z"/>
      <circle cx="21.4" cy="23.3" r="2.9"/>
    </g>
  </g>
</svg>