<?xml version="1.0" encoding="UTF-8"?>
<svg id="Warstwa_2" data-name="Warstwa 2" xmlns="http://www.w3.org/2000/svg" viewBox="0 0 79.4 81.38">
  <defs>
    <style>
      .cls-1 {
        fill: #fff;
      }
    </style>
  </defs>
  <g id="Warstwa_3" data-name="Warstwa 3">
    <g>
      <path class="cls-1" d="M52.28,29.04v22.56c0,.34-.28.62-.62.62h-1.73c-.34,0-.62-.28-.62-.62v-17.76l-18.62,18.62c-.24.24-.63.24-.87,0l-1.22-1.22c-.24-.24-.24-.63,0-.87l18.98-18.98h-18.49c-.34,0-.62-.28-.62-.62v-1.73c0-.34.28-.62.62-.62h22.57c.34,0,.62.28.62.62Z"/>
      <path class="cls-1" d="M39.7,3.62c19.89,0,36.08,16.63,36.08,37.07s-16.19,37.07-36.08,37.07S3.62,61.13,3.62,40.69,19.81,3.62,39.7,3.62M39.7,0C17.78,0,0,18.22,0,40.69s17.78,40.69,39.7,40.69,39.7-18.22,39.7-40.69S61.63,0,39.7,0h0Z"/>
    </g>
  </g>
</svg>