<?xml version="1.0" encoding="UTF-8"?>
<svg id="Warstwa_2" data-name="Warstwa 2" xmlns="http://www.w3.org/2000/svg" viewBox="0 0 57.37 59.53">
  <defs>
    <style>
      .cls-1 {
        fill: #1d1d1b;
      }
    </style>
  </defs>
  <g id="Warstwa_3" data-name="Warstwa 3">
    <g>
      <path class="cls-1" d="M37.77,21.24v16.5c0,.25-.2.45-.45.45h-1.25c-.25,0-.45-.2-.45-.45v-12.99l-13.45,13.62c-.17.18-.46.18-.63,0l-.88-.89c-.17-.18-.17-.46,0-.64l13.71-13.88h-13.36c-.25,0-.45-.2-.45-.45v-1.27c0-.25.2-.45.45-.45h16.31c.25,0,.45.2.45.45Z"/>
      <path class="cls-1" d="M28.69,2.65c14.37,0,26.07,12.16,26.07,27.11s-11.69,27.11-26.07,27.11S2.62,44.71,2.62,29.76,14.31,2.65,28.69,2.65M28.69,0C12.84,0,0,13.33,0,29.76s12.84,29.76,28.69,29.76,28.69-13.33,28.69-29.76S44.53,0,28.69,0h0Z"/>
    </g>
  </g>
</svg>