<?xml version="1.0" encoding="UTF-8"?>
<svg id="Warstwa_2" data-name="Warstwa 2" xmlns="http://www.w3.org/2000/svg" viewBox="0 0 42.6 19">
  <g id="sdgfcmnm">
    <g>
      <path d="M.7,12.5c.6-.6,1.3-1.4,1.7-1.9l.4-.4C11.2,1.4,18.2.5,20.8.5h1c11.1.4,18.3,9.7,19.8,11.9h0v.2c-.9.7-2,1.4-3,2,.5-.4.9-.8,1.4-1.2l.4-.4-.5-.4c-2.1-1.7-9.5-7.2-18.8-7.2S6.5,9.7,2.5,12.3l-.2.2h0l-.2.4.4.3c.9.7,1.6,1.4,2.3,2.1-1.4-.9-2.8-1.8-4.2-2.7h.1v-.1Z"/>
      <path d="M20.9,1h1c10.5.3,17.4,8.9,19.3,11.4,0,0-.2,0-.3.2l-.5-.4c-2.1-1.7-9.6-7.3-19.1-7.3h0c-8.1,0-14.8,4.4-18.8,7l-.4.3v.2l-.3.3s-.1,0-.2-.2c.5-.5,1-1.1,1.3-1.4s.4-.4.4-.4C11.5,2,18.4,1.1,21,1.1h0M20.9,0c-2.6,0-9.8.9-18.4,9.9,0,0-1.8,2-2.5,2.7,3,2,6.1,3.9,9.1,5.9-2.4-1.9-3.7-3.8-6.1-5.8h0c4.2-2.8,10.6-6.8,18.2-6.8h0c7.4,0,14.3,3.7,18.5,7.1-2.1,1.8-4.3,4-6.2,5.6,3-2,6.1-3.9,9.1-5.9-.1,0-.3-.3-.4-.4h0C40.8,10.3,33.4.5,21.9.1h-1v-.1Z"/>
    </g>
    <g>
      <path d="M20.9,18.5c-4.3,0-7.8-3.5-7.8-7.8s3.5-7.8,7.8-7.8,7.8,3.5,7.8,7.8-3.5,7.8-7.8,7.8ZM20.9,4.2c-3.6,0-6.6,2.9-6.6,6.6s2.9,6.6,6.6,6.6,6.6-2.9,6.6-6.6-3-6.6-6.6-6.6Z"/>
      <path d="M20.9,3.5c4,0,7.3,3.3,7.3,7.3s-3.3,7.2-7.3,7.2-7.2-3.2-7.2-7.2,3.3-7.3,7.2-7.3M20.9,17.9c3.9,0,7.1-3.2,7.1-7.1s-3.2-7.1-7.1-7.1-7.1,3.2-7.1,7.1,3.2,7.1,7.1,7.1M20.9,2.5c-4.6,0-8.2,3.7-8.2,8.3s3.7,8.2,8.2,8.2,8.3-3.7,8.3-8.2-3.7-8.3-8.3-8.3h0ZM20.9,16.9c-3.4,0-6.1-2.7-6.1-6.1s2.7-6.1,6.1-6.1,6.1,2.7,6.1,6.1-2.7,6.1-6.1,6.1h0Z"/>
    </g>
    <g>
      <path d="M20.9,13.5c-1.5,0-2.7-1.2-2.7-2.7s1.2-2.7,2.7-2.7,2.7,1.2,2.7,2.7-1.2,2.7-2.7,2.7ZM21.4,8.6c-.4,0-.7.2-.8.6,0,.3,0,.7.2,1s.6.6,1.6.6h0c.3,0,.7-.2.9-.4.1-.2.2-.4.1-.6-.1-.5-.6-.5-.7-.6-.1,0-.2,0-.4-.2-.2-.3-.4-.5-.7-.5h-.2v.1Z"/>
      <path d="M20.3,8.7s-.1.3-.2.4c-.1.5,0,1.1.3,1.5s.8.8,1.9.8h.6c-.2,1-1.1,1.7-2.1,1.7s-2.2-1-2.2-2.2.7-1.9,1.7-2.1M20.9,7.6c-1.8,0-3.2,1.4-3.2,3.2s1.4,3.2,3.2,3.2,3.2-1.4,3.2-3.2-1.4-3.2-3.2-3.2h0ZM22.4,10.4c-1.2,0-1.4-.6-1.3-1.1,0-.2.1-.2.3-.2s0,0,.1,0c.2,0,.4.3.4.3.5.6.9.2,1,.6,0,.2-.3.4-.5.4h0Z"/>
    </g>
  </g>
</svg>